<?xml version="1.0" encoding="UTF-8"?>
<!DOCTYPE svg PUBLIC "-//W3C//DTD SVG 1.1//EN" "http://www.w3.org/Graphics/SVG/1.1/DTD/svg11.dtd">
<svg version="1.1" xmlns="http://www.w3.org/2000/svg" xmlns:xlink="http://www.w3.org/1999/xlink" x="0" y="0" width="950" height="275" viewBox="0, 0, 950, 275">
  <defs>
    <linearGradient id="Gradient_1" gradientUnits="userSpaceOnUse" x1="-538.702" y1="1463.157" x2="-384.05" y2="1308.506" gradientTransform="matrix(1, 0, 0, -1, 579.16, 1504.4)">
      <stop offset="0" stop-color="#2942EE"/>
      <stop offset="1" stop-color="#008BFF"/>
    </linearGradient>
    <linearGradient id="Gradient_2" gradientUnits="userSpaceOnUse" x1="-472.319" y1="1529.54" x2="-317.667" y2="1374.888" gradientTransform="matrix(1, 0, 0, -1, 579.16, 1504.4)">
      <stop offset="0" stop-color="#2942EE"/>
      <stop offset="1" stop-color="#008BFF"/>
    </linearGradient>
    <linearGradient id="Gradient_3" gradientUnits="userSpaceOnUse" x1="-538.754" y1="1463.105" x2="-384.102" y2="1308.453" gradientTransform="matrix(1, 0, 0, -1, 579.16, 1504.4)">
      <stop offset="0" stop-color="#2942EE"/>
      <stop offset="1" stop-color="#008BFF"/>
    </linearGradient>
    <linearGradient id="Gradient_4" gradientUnits="userSpaceOnUse" x1="-604.908" y1="1396.951" x2="-450.256" y2="1242.3" gradientTransform="matrix(1, 0, 0, -1, 579.16, 1504.4)">
      <stop offset="0" stop-color="#2942EE"/>
      <stop offset="1" stop-color="#008BFF"/>
    </linearGradient>
    <linearGradient id="Gradient_5" gradientUnits="userSpaceOnUse" x1="-538.666" y1="1463.194" x2="-384.014" y2="1308.543" gradientTransform="matrix(1, 0, 0, -1, 579.16, 1504.4)">
      <stop offset="0" stop-color="#2942EE"/>
      <stop offset="1" stop-color="#008BFF"/>
    </linearGradient>
    <linearGradient id="Gradient_6" gradientUnits="userSpaceOnUse" x1="-481.824" y1="1520.035" x2="-327.173" y2="1365.384" gradientTransform="matrix(1, 0, 0, -1, 579.16, 1504.4)">
      <stop offset="0" stop-color="#2942EE"/>
      <stop offset="1" stop-color="#008BFF"/>
    </linearGradient>
    <linearGradient id="Gradient_7" gradientUnits="userSpaceOnUse" x1="-595.501" y1="1406.358" x2="-440.85" y2="1251.706" gradientTransform="matrix(1, 0, 0, -1, 579.16, 1504.4)">
      <stop offset="0" stop-color="#2942EE"/>
      <stop offset="1" stop-color="#008BFF"/>
    </linearGradient>
    <linearGradient id="Gradient_8" gradientUnits="userSpaceOnUse" x1="-595.844" y1="1406.015" x2="-441.192" y2="1251.364" gradientTransform="matrix(1, 0, 0, -1, 579.16, 1504.4)">
      <stop offset="0" stop-color="#2942EE"/>
      <stop offset="1" stop-color="#008BFF"/>
    </linearGradient>
    <linearGradient id="Gradient_9" gradientUnits="userSpaceOnUse" x1="-481.615" y1="1520.244" x2="-326.964" y2="1365.592" gradientTransform="matrix(1, 0, 0, -1, 579.16, 1504.4)">
      <stop offset="0" stop-color="#2942EE"/>
      <stop offset="1" stop-color="#008BFF"/>
    </linearGradient>
  </defs>
  <g id="Layer_1">
    <g>
      <g>
        <path d="M394.07,145.63 L326.7,145.63 C327.22,156.56 335.49,166.06 351.15,166.06 C362.41,166.06 369.62,160.08 373.14,153.9 L392.13,156.02 C389.49,168.17 375.61,185.25 350.96,185.25 C323.52,185.25 305.05,164.48 305.05,138.41 C305.05,113.58 322.64,92.61 349.56,92.61 C377,92.61 394.07,114.44 394.07,139.99 L394.07,145.63 L394.07,145.63 L394.07,145.63 z M326.69,130.66 L372.43,130.66 C371.72,120.8 363.11,111.82 349.57,111.82 C336.38,111.82 327.23,120.44 326.69,130.66 z" fill="#1A1A1A"/>
        <path d="M429.6,138.93 L394.06,94.38 L420.8,94.38 L442.95,124.15 L465.1,94.38 L491.84,94.38 L456.3,138.93 L491.84,183.48 L465.1,183.48 L442.95,153.71 L420.8,183.48 L394.06,183.48 L429.6,138.93 z" fill="#1A1A1A"/>
        <path d="M533.56,92.61 C548.86,92.61 560.82,100.71 565.4,110.93 L566.63,94.38 L587.21,94.38 L587.21,183.5 L566.63,183.5 L565.4,166.95 C560.83,177.16 548.88,185.27 533.56,185.27 C508.05,185.27 489.41,164.49 489.41,138.95 C489.4,113.4 508.05,92.61 533.56,92.61 z M537.25,164.81 C552.37,164.81 563.1,153.02 563.1,138.92 C563.1,124.83 552.37,113.03 537.25,113.03 C521.95,113.03 511.04,124.82 511.04,138.92 C511.06,153.02 521.95,164.81 537.25,164.81 z" fill="#1A1A1A"/>
        <path d="M627.31,183.49 L605.68,183.49 L605.68,67.6 L627.31,67.6 L627.31,183.49 z" fill="#1A1A1A"/>
        <path d="M637.88,138.93 C637.88,113.39 657.76,92.61 685.72,92.61 C713.5,92.61 733.22,113.38 733.22,138.93 C733.22,164.47 713.52,185.25 685.72,185.25 C657.75,185.24 637.88,164.47 637.88,138.93 z M711.58,138.93 C711.58,124.84 700.85,113.04 685.73,113.04 C670.43,113.04 659.52,124.83 659.52,138.93 C659.52,153.02 670.44,164.82 685.73,164.82 C700.84,164.81 711.58,153.02 711.58,138.93 z" fill="#1A1A1A"/>
        <path d="M739.02,138.93 C739.02,113.39 758.9,92.61 786.86,92.61 C814.64,92.61 834.35,113.38 834.35,138.93 C834.35,164.47 814.64,185.25 786.86,185.25 C758.89,185.24 739.02,164.47 739.02,138.93 z M812.71,138.93 C812.71,124.84 801.98,113.04 786.86,113.04 C771.56,113.04 760.65,124.83 760.65,138.93 C760.65,153.02 771.57,164.82 786.86,164.82 C801.99,164.81 812.71,153.02 812.71,138.93 z" fill="#1A1A1A"/>
        <path d="M844.39,94.39 L864.79,94.39 L866.02,110.94 C870.76,100.72 882.57,92.62 897.86,92.62 C923.37,92.62 942.19,113.39 942.19,138.94 C942.19,164.48 923.37,185.26 897.86,185.26 C882.56,185.26 870.76,177.16 866.02,166.94 L866.02,207.82 L844.39,207.82 L844.39,94.39 z M894.34,164.81 C909.48,164.81 920.37,153.02 920.37,138.92 C920.37,124.83 909.45,113.03 894.34,113.03 C879.04,113.03 868.49,124.82 868.49,138.92 C868.48,153.02 879.04,164.81 894.34,164.81 z" fill="#1A1A1A"/>
      </g>
      <g>
        <path d="M190.49,122.94 C183.91,128.66 182.19,137.69 185.32,145.14 C186.23,147.3 185.69,149.82 184.02,151.48 L183.88,151.62 C182.22,153.28 179.73,153.84 177.56,152.93 C170.52,149.95 162.07,151.33 156.33,157.07 C156.32,157.08 156.32,157.08 156.29,157.09 C156.28,157.1 156.28,157.1 156.27,157.13 C150.53,162.87 149.16,171.36 152.15,178.41 C153.05,180.55 152.49,183.03 150.86,184.67 L150.72,184.81 C149.08,186.45 146.6,187 144.45,186.1 C139.52,184.01 133.89,184.07 128.98,186.27 C127.04,187.15 124.76,186.59 123.24,185.1 L122.65,184.51 C121.05,182.91 120.73,180.51 121.62,178.42 C125.35,169.58 122.27,158.54 112.35,153.4 C109.72,152.05 106.77,151.47 103.82,151.47 L103.81,151.47 C101.04,151.47 98.36,152.05 95.9,153.14 C93.96,154.02 91.68,153.47 90.16,151.98 L89.54,151.37 C88.05,149.87 87.49,147.6 88.37,145.66 C90.61,140.65 90.62,134.86 88.39,129.86 C87.54,127.93 88.08,125.65 89.58,124.15 L90.27,123.46 C91.76,121.96 94.04,121.43 95.97,122.29 C98.41,123.38 101.08,123.95 103.82,123.95 L103.83,123.95 C106.75,123.95 109.67,123.39 112.27,122.08 C119.2,118.53 123.19,111.86 123.19,104.59 C123.19,102 122.68,99.49 121.72,97.16 C120.79,94.92 121.33,92.35 123.04,90.63 C124.74,88.93 127.31,88.38 129.52,89.29 C131.89,90.28 134.42,90.77 136.94,90.77 C139.51,90.77 142.06,90.26 144.47,89.24 C146.66,88.31 149.2,88.86 150.88,90.55 C152.56,92.23 153.12,94.77 152.18,96.97 C150.18,101.75 150.16,107.17 152.13,111.94 C153.06,114.16 152.5,116.73 150.79,118.43 C149.1,120.13 146.54,120.7 144.32,119.77 C137.29,116.85 128.9,118.23 123.2,123.95 C119.55,127.62 117.55,132.48 117.55,137.66 C117.55,142.84 119.57,147.71 123.2,151.38 C126.97,155.15 131.92,157.05 136.88,157.05 C141.84,157.05 146.8,155.16 150.58,151.38 C156.35,145.6 157.7,137.02 154.62,129.94 C153.67,127.76 154.23,125.23 155.9,123.55 C157.57,121.87 160.11,121.33 162.29,122.27 C164.74,123.35 167.39,123.88 170.01,123.88 C174.98,123.88 179.93,121.99 183.71,118.21 C187.36,114.54 189.38,109.68 189.38,104.51 C189.38,102.66 189.12,100.87 188.62,99.15 C187.73,96.03 186.07,93.17 183.71,90.81 C177.94,85.03 169.39,83.68 162.33,86.74 C160.17,87.67 157.66,87.12 155.99,85.45 C154.32,83.78 153.78,81.25 154.71,79.09 C157.92,71.65 156.26,62.6 149.72,56.83 C142.47,50.44 131.19,50.51 124.01,56.97 C119.89,60.68 117.6,65.86 117.6,71.4 C117.6,74.1 118.16,76.72 119.2,79.12 C120.15,81.3 119.6,83.84 117.93,85.51 C116.25,87.19 113.71,87.73 111.54,86.78 C109.15,85.74 106.54,85.18 103.82,85.18 L103.81,85.18 C100.83,85.18 97.84,85.76 95.19,87.14 C85.27,92.34 82.23,103.47 86.08,112.3 C86.98,114.38 86.7,116.79 85.07,118.4 L84.5,118.97 C82.99,120.48 80.68,121.02 78.74,120.12 C76.24,118.97 73.5,118.36 70.67,118.36 L70.66,118.36 C67.71,118.36 64.76,118.92 62.13,120.28 C55.25,123.84 51.32,130.48 51.32,137.74 C51.32,142.93 53.34,147.79 56.97,151.46 C60.74,155.23 65.69,157.13 70.65,157.13 C73.39,157.13 76.14,156.55 78.67,155.39 C80.61,154.5 82.94,155.04 84.44,156.56 L84.96,157.08 C86.56,158.68 86.88,161.09 85.98,163.17 C82.18,172.01 85.21,183.1 95.12,188.29 C97.76,189.67 100.75,190.25 103.74,190.25 L103.75,190.25 C106.56,190.25 109.27,189.66 111.76,188.52 C113.72,187.63 116.03,188.15 117.53,189.68 L118.04,190.19 C119.55,191.7 120.09,194.02 119.2,195.97 C118.06,198.45 117.47,201.17 117.47,203.99 C117.47,209.18 119.49,214.04 123.12,217.71 C126.89,221.48 131.84,223.38 136.8,223.38 C141.76,223.38 146.72,221.49 150.5,217.71 C156.3,211.91 157.62,203.33 154.53,196.24 C153.58,194.09 154.14,191.58 155.81,189.9 C157.48,188.23 159.99,187.69 162.14,188.63 C164.61,189.71 167.25,190.26 169.89,190.26 C174.86,190.26 179.8,188.37 183.57,184.59 C183.58,184.58 183.58,184.58 183.59,184.57 C183.6,184.56 183.6,184.56 183.61,184.55 C189.38,178.77 190.73,170.19 187.65,163.11 C186.7,160.93 187.26,158.4 188.93,156.73 C190.6,155.06 193.14,154.51 195.32,155.45 C197.77,156.53 200.39,157.06 203.04,157.06 C208.01,157.06 212.96,155.17 216.74,151.39 C224.43,143.69 224.29,131.08 216.31,123.57 C209.3,116.79 197.85,116.53 190.49,122.94 z" fill="url(#Gradient_1)"/>
        <path d="M203.26,86.03 C207.03,86.03 210.81,84.59 213.68,81.71 C219.43,75.96 219.43,66.61 213.68,60.85 C207.93,55.1 198.59,55.1 192.84,60.85 C190.05,63.64 188.53,67.34 188.53,71.28 C188.53,75.22 190.07,78.92 192.84,81.71 C195.71,84.6 199.49,86.03 203.26,86.03 z" fill="url(#Gradient_2)"/>
        <path d="M203.05,189.19 C199.11,189.19 195.42,190.73 192.63,193.51 C189.85,196.29 188.32,199.99 188.32,203.94 C188.32,207.88 189.86,211.58 192.63,214.37 C195.5,217.24 199.27,218.69 203.04,218.69 C206.81,218.69 210.59,217.25 213.46,214.37 C219.21,208.62 219.21,199.27 213.47,193.51 C210.7,190.74 207,189.19 203.05,189.19 z" fill="url(#Gradient_3)"/>
        <path d="M60.32,193.5 C57.53,196.28 56.01,199.98 56.01,203.93 C56.01,207.87 57.55,211.57 60.32,214.36 C63.19,217.23 66.97,218.68 70.74,218.68 C74.51,218.68 78.29,217.24 81.15,214.36 C86.9,208.61 86.9,199.26 81.15,193.5 C75.4,187.75 66.07,187.75 60.32,193.5 z" fill="url(#Gradient_4)"/>
        <path d="M70.76,86.22 C74.53,86.22 78.31,84.78 81.17,81.9 C86.92,76.15 86.92,66.8 81.18,61.04 C78.39,58.25 74.7,56.72 70.76,56.72 C66.83,56.72 63.13,58.26 60.34,61.04 C57.55,63.82 56.03,67.52 56.03,71.47 C56.03,75.41 57.57,79.11 60.34,81.9 C63.21,84.79 66.98,86.22 70.76,86.22 z" fill="url(#Gradient_5)"/>
        <path d="M250.59,122.86 C242.46,122.86 235.84,129.48 235.84,137.62 C235.84,145.76 242.46,152.38 250.59,152.38 C258.72,152.38 265.33,145.76 265.33,137.62 C265.33,129.48 258.72,122.86 250.59,122.86 z" fill="url(#Gradient_6)"/>
        <path d="M137.29,236.92 C129.18,236.92 122.56,243.54 122.56,251.68 C122.56,259.82 129.16,266.43 137.29,266.43 C145.42,266.43 152.04,259.82 152.04,251.68 C152.03,243.52 145.41,236.92 137.29,236.92 z" fill="url(#Gradient_7)"/>
        <path d="M22.54,122.86 C14.41,122.86 7.81,129.47 7.81,137.61 C7.81,145.75 14.41,152.37 22.54,152.37 C30.67,152.37 37.28,145.75 37.28,137.61 C37.28,129.47 30.66,122.86 22.54,122.86 z" fill="url(#Gradient_8)"/>
        <path d="M136.71,38.05 C144.84,38.05 151.45,31.44 151.45,23.3 C151.44,15.19 144.84,8.56 136.71,8.56 C128.6,8.56 121.99,15.18 121.99,23.32 C121.98,31.46 128.58,38.05 136.71,38.05 z" fill="url(#Gradient_9)"/>
      </g>
    </g>
  </g>
</svg>
