<?xml version="1.0" encoding="UTF-8"?>
<!DOCTYPE svg PUBLIC "-//W3C//DTD SVG 1.1//EN" "http://www.w3.org/Graphics/SVG/1.1/DTD/svg11.dtd">
<svg version="1.1" xmlns="http://www.w3.org/2000/svg" xmlns:xlink="http://www.w3.org/1999/xlink" x="0" y="0" width="200" height="200" viewBox="0, 0, 200, 200">
  <g id="Layer_1">
    <g>
      <path d="M100,129.615 C83.644,129.615 70.385,116.356 70.385,100 C70.385,83.644 83.644,70.385 100,70.385 C116.356,70.385 129.615,83.644 129.615,100 C129.615,116.356 116.356,129.615 100,129.615 z" fill="#0137CF"/>
      <path d="M102.24,99.982 C105.156,97.546 108.056,94.968 110.319,91.852 C113.34,87.692 114.808,83.061 114.808,77.788 L112.074,77.788 C112.074,79.404 111.921,80.894 111.638,82.28 L88.362,82.28 C88.079,80.894 87.926,79.404 87.926,77.788 L85.192,77.788 C85.192,83.061 86.66,87.704 89.681,91.864 C91.947,94.985 94.853,97.548 97.773,99.982 C94.853,102.416 91.947,104.979 89.681,108.1 C86.66,112.259 85.192,116.842 85.192,122.212 L87.926,122.212 C87.926,120.479 88.099,118.894 88.417,117.428 L111.583,117.428 C111.901,118.894 112.074,120.479 112.074,122.212 L114.808,122.212 C114.808,116.842 113.34,112.271 110.319,108.112 C108.056,104.996 105.156,102.417 102.24,99.982 z M89.204,85.209 L110.797,85.209 C110.066,87.16 109.055,88.891 107.849,90.481 L92.156,90.481 C90.949,88.891 89.936,87.161 89.204,85.209 z M94.718,93.41 L105.291,93.41 C103.666,95.06 101.861,96.594 100.007,98.131 C98.152,96.593 96.345,95.059 94.718,93.41 z M100.007,101.832 C101.843,103.353 103.63,104.866 105.242,106.493 L94.767,106.493 C96.381,104.867 98.17,103.354 100.007,101.832 z M89.296,114.499 C90.027,112.622 91.018,110.955 92.189,109.422 L107.816,109.422 C108.986,110.955 109.975,112.622 110.705,114.499 L89.296,114.499 z" fill="#FFFFFF" id="dna-svgrepo-com"/>
    </g>
    <g>
      <path d="M33.365,129.615 C17.009,129.615 3.75,116.356 3.75,100 C3.75,83.644 17.009,70.385 33.365,70.385 C49.722,70.385 62.981,83.644 62.981,100 C62.981,116.356 49.722,129.615 33.365,129.615 z" fill="#F42300"/>
      <g id="atom-svgrepo-com">
        <path d="M33.365,94.675 C30.429,94.675 28.04,97.064 28.04,100 C28.04,102.936 30.429,105.325 33.365,105.325 C36.302,105.325 38.69,102.936 38.69,100 C38.69,97.064 36.302,94.675 33.365,94.675 z M33.365,103.886 C31.223,103.886 29.48,102.143 29.48,100 C29.48,97.857 31.223,96.114 33.365,96.114 C35.508,96.114 37.251,97.857 37.251,100 C37.251,102.143 35.508,103.886 33.365,103.886 z" fill="#FFFFFF"/>
        <path d="M33.365,97.745 C32.968,97.745 32.646,98.067 32.646,98.465 C32.646,98.862 32.968,99.184 33.365,99.184 C33.815,99.184 34.181,99.55 34.181,100 C34.181,100.397 34.503,100.72 34.901,100.72 C35.298,100.72 35.62,100.397 35.62,100 C35.62,98.757 34.609,97.745 33.365,97.745 z" fill="#FFFFFF"/>
        <path d="M55.577,100 C55.577,97.623 53.172,95.455 48.805,93.895 C48.679,93.85 48.552,93.806 48.425,93.762 C48.484,93.641 48.543,93.52 48.6,93.4 C50.585,89.209 50.752,85.975 49.071,84.294 C47.39,82.613 44.156,82.781 39.965,84.766 C39.845,84.823 39.724,84.881 39.603,84.941 C39.559,84.813 39.515,84.686 39.471,84.561 C37.911,80.194 35.743,77.788 33.365,77.788 C30.988,77.788 28.82,80.194 27.26,84.561 C27.215,84.686 27.171,84.813 27.128,84.941 C27.007,84.881 26.886,84.823 26.765,84.766 C22.574,82.781 19.34,82.613 17.659,84.294 C15.979,85.975 16.146,89.209 18.131,93.4 C18.188,93.52 18.247,93.641 18.306,93.762 C18.178,93.806 18.052,93.85 17.926,93.895 C13.559,95.455 11.154,97.623 11.154,100 C11.154,102.377 13.559,104.545 17.926,106.105 C18.052,106.15 18.178,106.194 18.306,106.238 C18.247,106.359 18.188,106.48 18.131,106.6 C16.146,110.791 15.978,114.025 17.659,115.706 C18.427,116.473 19.517,116.855 20.875,116.855 C22.492,116.855 24.487,116.313 26.765,115.234 C26.886,115.177 27.007,115.119 27.128,115.059 C27.171,115.187 27.216,115.314 27.26,115.439 C28.82,119.806 30.988,122.212 33.365,122.212 C35.743,122.212 37.911,119.806 39.471,115.439 C39.515,115.314 39.559,115.187 39.603,115.059 C39.724,115.119 39.845,115.177 39.965,115.234 C42.244,116.313 44.239,116.855 45.856,116.855 C47.213,116.855 48.304,116.473 49.071,115.706 C50.752,114.025 50.585,110.791 48.6,106.6 C48.543,106.48 48.484,106.359 48.425,106.238 C48.552,106.194 48.679,106.15 48.805,106.105 C53.172,104.545 55.577,102.377 55.577,100 z M40.582,86.067 C42.672,85.076 44.476,84.574 45.851,84.574 C46.81,84.574 47.56,84.818 48.054,85.312 C49.254,86.513 48.979,89.236 47.299,92.784 C47.214,92.964 47.124,93.145 47.033,93.327 C45.268,92.818 43.316,92.415 41.238,92.128 C40.95,90.049 40.547,88.097 40.039,86.332 C40.221,86.241 40.402,86.152 40.582,86.067 z M40.321,100 C40.321,100.963 40.298,101.915 40.254,102.853 C39.622,103.548 38.965,104.238 38.284,104.919 C37.603,105.6 36.913,106.257 36.219,106.888 C35.281,106.933 34.328,106.956 33.365,106.956 C32.402,106.956 31.45,106.933 30.512,106.888 C29.817,106.257 29.128,105.6 28.447,104.919 C27.766,104.238 27.109,103.548 26.477,102.853 C26.433,101.915 26.409,100.963 26.409,100 C26.409,99.037 26.433,98.085 26.477,97.147 C27.109,96.452 27.766,95.762 28.447,95.081 C29.128,94.4 29.817,93.743 30.512,93.112 C31.45,93.067 32.403,93.044 33.365,93.044 C34.328,93.044 35.281,93.067 36.219,93.112 C36.913,93.743 37.603,94.4 38.284,95.081 C38.965,95.762 39.622,96.452 40.254,97.147 C40.298,98.085 40.321,99.037 40.321,100 z M39.302,94.064 C39.032,93.794 38.76,93.527 38.488,93.265 C38.982,93.308 39.47,93.358 39.952,93.414 C40.007,93.896 40.057,94.384 40.101,94.878 C39.838,94.605 39.572,94.334 39.302,94.064 z M36.803,91.701 C36.052,91.031 35.297,90.39 34.54,89.783 C35.962,88.725 37.372,87.797 38.74,87.025 C39.161,88.538 39.502,90.191 39.759,91.945 C38.795,91.839 37.807,91.758 36.803,91.701 z M34.506,91.615 C34.127,91.608 33.747,91.605 33.365,91.605 C32.984,91.605 32.603,91.608 32.225,91.615 C32.605,91.297 32.985,90.987 33.365,90.686 C33.746,90.987 34.126,91.297 34.506,91.615 z M29.928,91.701 C28.924,91.758 27.936,91.839 26.972,91.945 C27.228,90.191 27.57,88.538 27.991,87.025 C29.359,87.797 30.769,88.725 32.191,89.783 C31.434,90.39 30.678,91.031 29.928,91.701 z M28.243,93.265 C27.971,93.527 27.699,93.794 27.429,94.064 C27.159,94.334 26.893,94.605 26.63,94.878 C26.673,94.384 26.723,93.896 26.779,93.414 C27.261,93.358 27.749,93.308 28.243,93.265 z M25.067,96.563 C24.397,97.313 23.756,98.069 23.148,98.825 C22.09,97.404 21.162,95.993 20.39,94.625 C21.903,94.205 23.557,93.863 25.31,93.606 C25.204,94.571 25.123,95.558 25.067,96.563 z M24.981,98.859 C24.974,99.238 24.97,99.618 24.97,100 C24.97,100.382 24.974,100.762 24.981,101.141 C24.662,100.761 24.352,100.38 24.051,100 C24.352,99.62 24.662,99.239 24.981,98.859 z M25.067,103.437 C25.123,104.442 25.204,105.429 25.31,106.394 C23.557,106.137 21.903,105.795 20.39,105.375 C21.163,104.007 22.09,102.596 23.148,101.175 C23.756,101.931 24.397,102.687 25.067,103.437 z M26.63,105.122 C26.893,105.395 27.159,105.666 27.429,105.936 C27.699,106.206 27.971,106.473 28.243,106.735 C27.749,106.692 27.261,106.642 26.779,106.586 C26.723,106.104 26.674,105.616 26.63,105.122 z M29.928,108.299 C30.678,108.969 31.434,109.61 32.19,110.217 C30.769,111.275 29.358,112.203 27.991,112.975 C27.57,111.462 27.228,109.809 26.972,108.055 C27.936,108.161 28.924,108.242 29.928,108.299 z M32.225,108.385 C32.603,108.392 32.984,108.395 33.365,108.395 C33.747,108.395 34.127,108.392 34.506,108.385 C34.126,108.703 33.746,109.013 33.365,109.314 C32.985,109.013 32.605,108.703 32.225,108.385 z M36.803,108.299 C37.807,108.242 38.795,108.161 39.759,108.055 C39.502,109.809 39.161,111.462 38.74,112.975 C37.372,112.203 35.962,111.275 34.54,110.217 C35.297,109.61 36.053,108.969 36.803,108.299 z M38.488,106.735 C38.76,106.473 39.032,106.206 39.302,105.936 C39.572,105.666 39.838,105.395 40.101,105.122 C40.057,105.616 40.008,106.104 39.952,106.586 C39.47,106.642 38.982,106.692 38.488,106.735 z M41.664,103.437 C42.334,102.687 42.975,101.931 43.583,101.175 C44.641,102.596 45.568,104.007 46.341,105.375 C44.827,105.795 43.174,106.137 41.421,106.394 C41.526,105.429 41.607,104.442 41.664,103.437 z M41.75,101.141 C41.757,100.762 41.761,100.382 41.761,100 C41.761,99.618 41.757,99.238 41.75,98.859 C42.068,99.239 42.378,99.62 42.68,100 C42.378,100.38 42.068,100.761 41.75,101.141 z M41.664,96.563 C41.607,95.558 41.526,94.571 41.421,93.606 C43.174,93.863 44.827,94.205 46.341,94.625 C45.568,95.993 44.641,97.404 43.583,98.825 C42.975,98.068 42.334,97.313 41.664,96.563 z M28.616,85.045 C29.936,81.348 31.667,79.228 33.365,79.228 C35.064,79.228 36.795,81.348 38.115,85.045 C38.182,85.232 38.247,85.423 38.311,85.617 C36.703,86.505 35.038,87.6 33.365,88.866 C31.692,87.6 30.027,86.505 28.42,85.617 C28.484,85.424 28.549,85.232 28.616,85.045 z M19.432,92.784 C17.751,89.236 17.476,86.513 18.677,85.312 C19.171,84.818 19.921,84.574 20.88,84.574 C22.255,84.574 24.059,85.076 26.149,86.066 C26.329,86.152 26.51,86.241 26.692,86.332 C26.183,88.097 25.78,90.049 25.493,92.127 C23.414,92.415 21.463,92.818 19.697,93.327 C19.606,93.145 19.517,92.964 19.432,92.784 z M18.41,104.75 C14.713,103.429 12.593,101.698 12.593,100 C12.593,98.302 14.713,96.571 18.41,95.25 C18.598,95.183 18.789,95.118 18.982,95.054 C19.87,96.662 20.965,98.327 22.232,100 C20.965,101.673 19.87,103.338 18.982,104.946 C18.789,104.882 18.598,104.817 18.41,104.75 z M26.149,113.933 C22.601,115.614 19.878,115.889 18.677,114.688 C17.476,113.487 17.751,110.764 19.432,107.216 C19.517,107.036 19.606,106.855 19.698,106.673 C21.463,107.182 23.415,107.585 25.493,107.873 C25.78,109.951 26.184,111.903 26.692,113.668 C26.51,113.759 26.329,113.848 26.149,113.933 z M38.115,114.955 C36.795,118.652 35.064,120.772 33.365,120.772 C31.667,120.772 29.936,118.652 28.616,114.955 C28.549,114.768 28.484,114.577 28.42,114.383 C30.027,113.495 31.692,112.4 33.365,111.134 C35.038,112.4 36.703,113.495 38.311,114.383 C38.247,114.576 38.182,114.768 38.115,114.955 z M47.299,107.216 C48.979,110.764 49.254,113.487 48.054,114.688 C46.853,115.889 44.129,115.614 40.582,113.933 C40.402,113.848 40.221,113.759 40.039,113.668 C40.547,111.903 40.951,109.951 41.238,107.873 C43.316,107.585 45.268,107.182 47.033,106.673 C47.124,106.855 47.214,107.036 47.299,107.216 z M44.499,100 C45.765,98.327 46.86,96.662 47.749,95.054 C47.942,95.118 48.133,95.183 48.32,95.25 C52.017,96.571 54.138,98.302 54.138,100 C54.138,101.698 52.017,103.429 48.321,104.75 C48.133,104.817 47.942,104.882 47.749,104.946 C46.86,103.338 45.765,101.673 44.499,100 z" fill="#FFFFFF"/>
      </g>
    </g>
    <g>
      <path d="M166.635,129.615 C150.278,129.615 137.019,116.356 137.019,100 C137.019,83.644 150.278,70.385 166.635,70.385 C182.991,70.385 196.25,83.644 196.25,100 C196.25,116.356 182.991,129.615 166.635,129.615 z" fill="#32A600"/>
      <g id="135d49dccc62a5a860a2f2d3df0e6538">
        <path d="M165.175,76.724 C161.718,77.455 158.946,80.266 158.224,83.759 C158.073,84.481 158.044,84.908 158.082,85.895 C158.13,87.272 158.281,87.946 158.813,89.181 L159.165,89.997 L158.158,90.396 C157.607,90.615 156.639,91.061 156.012,91.393 L154.873,91.991 L153.924,91.526 C152.879,91.023 151.721,90.69 151.018,90.69 C150.639,90.69 150.496,90.738 150.249,90.966 C149.945,91.231 149.936,91.27 149.955,91.896 C149.974,92.769 150.287,93.662 150.98,94.82 L151.151,95.114 L150.487,95.988 C149.509,97.27 148.749,98.789 148.322,100.299 L148.17,100.849 L147.249,100.849 C146.157,100.849 145.787,100.945 145.179,101.352 C144.581,101.751 144.135,102.387 143.945,103.118 C143.717,104.011 143.784,107.21 144.04,107.685 C144.335,108.217 145.217,109.081 146.233,109.821 C147.183,110.514 153.05,114.208 153.649,114.502 L153.971,114.654 L153.971,117.436 C153.971,120.398 154.009,120.645 154.437,120.882 C154.551,120.939 155.547,120.978 156.981,120.978 C158.937,120.978 159.374,120.949 159.545,120.835 C159.659,120.75 160.143,119.943 160.618,119.022 C161.301,117.721 161.52,117.37 161.643,117.408 C161.738,117.436 162.194,117.522 162.659,117.598 C166.542,118.253 170.919,117.968 174.47,116.838 C175.021,116.667 175.477,116.534 175.495,116.543 C175.505,116.562 175.704,117.464 175.932,118.556 C176.312,120.332 176.378,120.559 176.606,120.759 C176.862,120.978 176.891,120.978 179.236,120.978 C180.689,120.978 181.686,120.939 181.799,120.882 C182.245,120.636 182.265,120.493 182.265,116.268 L182.265,112.309 L182.872,111.663 C184.467,109.983 185.597,107.828 186.072,105.587 C186.461,103.764 186.3,101.21 185.692,99.615 L185.521,99.159 L186.129,98.551 C186.461,98.229 186.926,97.668 187.154,97.327 L187.572,96.7 L188.132,96.653 C189.167,96.558 190.639,95.779 191.731,94.744 C192.348,94.165 192.49,93.785 192.291,93.301 C192.12,92.912 191.598,92.627 191.208,92.732 C191.075,92.76 190.734,93.007 190.439,93.263 C189.756,93.871 189.025,94.365 188.521,94.536 L188.132,94.678 L188.189,94.365 C188.226,94.203 188.274,93.605 188.312,93.045 C188.407,91.421 188.132,90.415 187.382,89.598 C186.727,88.886 186.375,88.744 185.255,88.744 C184.381,88.744 184.268,88.763 183.793,89.029 C182.787,89.589 182.312,90.539 182.312,92.02 C182.312,92.846 182.341,92.969 182.597,93.434 C183.157,94.441 183.945,95.248 185.332,96.216 C185.493,96.33 185.464,96.378 185.066,96.814 C184.658,97.26 184.629,97.28 184.515,97.109 C184.458,97.004 184.097,96.51 183.718,96.007 C182.028,93.729 179.218,91.659 176.198,90.453 C175.591,90.206 175.088,89.997 175.078,89.988 C175.069,89.979 175.22,89.589 175.42,89.114 C175.999,87.756 176.142,87.045 176.132,85.516 C176.132,84.452 176.085,84.025 175.914,83.38 C174.983,79.886 172.164,77.265 168.651,76.648 C167.795,76.496 166.095,76.534 165.175,76.724 z M168.934,78.727 C170.159,79.041 171.08,79.591 172.105,80.626 C172.845,81.357 173.092,81.68 173.415,82.335 C174.365,84.243 174.46,86.446 173.672,88.316 C172.048,92.162 167.614,93.785 163.845,91.905 C162.734,91.355 161.405,90.044 160.835,88.934 C159.867,87.045 159.725,85.088 160.427,83.171 C160.749,82.278 161.566,81.015 162.174,80.455 C163.199,79.506 164.756,78.746 166.047,78.547 C166.836,78.424 168.051,78.5 168.934,78.727 z M185.882,90.842 C186.261,91.184 186.375,91.754 186.328,93.017 C186.299,93.672 186.242,94.251 186.185,94.308 C186.053,94.44 185.265,93.785 184.723,93.074 C184.249,92.447 184.249,92.447 184.277,91.811 C184.306,91.298 184.353,91.127 184.534,90.938 C184.875,90.567 185.53,90.529 185.882,90.842 z M160.997,92.247 C161.348,92.58 161.775,92.931 161.937,93.026 C162.098,93.121 162.231,93.225 162.231,93.254 C162.231,93.282 161.795,93.425 161.253,93.567 C159.924,93.928 158.718,94.431 158.462,94.725 C158.14,95.096 158.168,95.656 158.519,96.016 C158.899,96.387 159.213,96.377 160.371,95.921 C162.469,95.104 164.511,94.744 167.121,94.744 C169.713,94.744 171.926,95.143 173.938,95.95 C174.394,96.14 174.925,96.292 175.106,96.292 C175.846,96.292 176.274,95.342 175.809,94.744 C175.581,94.459 174.119,93.861 172.846,93.529 C172.381,93.406 172.011,93.292 172.011,93.253 C172.011,93.225 172.248,93.045 172.524,92.845 C172.799,92.646 173.217,92.294 173.435,92.066 L173.834,91.658 L174.233,91.782 C178.115,92.988 181.704,95.827 183.28,98.941 C184.78,101.903 184.657,105.454 182.967,108.283 C182.502,109.053 181.543,110.277 180.983,110.818 C180.233,111.54 180.27,111.321 180.27,115.423 L180.27,119.088 L179.16,119.06 L178.039,119.031 L177.593,116.857 C177.242,115.129 177.109,114.645 176.938,114.464 C176.596,114.104 176.226,114.094 175.429,114.407 C172.457,115.585 169.922,116.002 166.314,115.917 C164.482,115.869 163.845,115.822 162.754,115.613 C160.636,115.224 160.693,115.224 160.38,115.499 C160.209,115.641 159.754,116.401 159.241,117.408 L158.386,119.079 L157.181,119.079 L155.975,119.079 L155.946,116.382 C155.918,113.287 155.965,113.487 154.968,112.984 C154.237,112.613 148.616,109.11 147.449,108.293 C146.955,107.951 146.385,107.514 146.186,107.315 L145.806,106.954 L145.806,105.274 C145.806,102.891 145.911,102.748 147.705,102.748 C149.262,102.748 149.756,102.359 150.23,100.773 C150.715,99.131 151.588,97.602 152.784,96.311 C153.601,95.428 153.62,95.096 152.946,94.184 C152.519,93.615 152.224,93.074 152.3,92.997 C152.357,92.931 153.487,93.453 154.104,93.842 C154.787,94.26 155.044,94.231 155.993,93.652 C156.933,93.073 158.452,92.333 159.525,91.934 C159.943,91.782 160.304,91.649 160.323,91.649 C160.342,91.64 160.646,91.915 160.997,92.247 z" fill="#FFFFFF"/>
        <path d="M166.731,80.617 C166.427,80.75 166.124,81.186 166.124,81.49 C166.124,81.652 166.076,81.766 166,81.766 C165.801,81.766 165.146,82.146 164.813,82.459 C164.357,82.895 164.13,83.437 164.13,84.092 C164.13,85.184 164.756,85.915 166.057,86.332 C166.76,86.56 166.874,86.522 166.883,86.086 C166.883,85.981 166.931,85.829 166.979,85.753 C167.045,85.648 167.074,85.744 167.074,86.095 L167.074,86.579 L167.501,86.703 C168.241,86.911 168.308,87.253 167.672,87.529 C167.007,87.804 166.03,87.481 166.03,86.988 C166.03,86.703 165.659,86.332 165.308,86.266 C164.918,86.2 164.472,86.361 164.273,86.646 C163.741,87.386 164.643,88.981 165.802,89.361 C166.02,89.437 166.124,89.532 166.124,89.655 C166.124,89.931 166.38,90.386 166.59,90.5 C166.836,90.624 167.292,90.624 167.587,90.491 C167.824,90.377 168.118,89.893 168.118,89.618 C168.118,89.542 168.289,89.409 168.508,89.323 C169.106,89.086 169.789,88.383 169.979,87.823 C170.178,87.216 170.112,86.542 169.789,86 C169.39,85.317 168.821,84.994 167.453,84.671 C166.409,84.424 166.001,84.225 166.095,83.997 C166.247,83.598 167.386,83.418 167.824,83.722 C167.938,83.807 168.118,84.064 168.223,84.301 C168.545,85.051 169.428,85.174 169.922,84.548 C170.482,83.836 169.723,82.383 168.536,81.889 C168.203,81.757 168.127,81.671 168.042,81.32 C167.88,80.74 167.244,80.399 166.731,80.617 z" fill="#FFFFFF"/>
        <path d="M153.316,98.903 C151.797,99.387 151.493,101.495 152.813,102.407 C153.364,102.796 154.227,102.863 154.797,102.568 C155.32,102.312 155.737,101.78 155.87,101.22 C156.231,99.738 154.787,98.428 153.316,98.903 z" fill="#FFFFFF"/>
      </g>
    </g>
    <g>
      <path d="M100,62.981 C83.644,62.981 70.385,49.722 70.385,33.365 C70.385,17.009 83.644,3.75 100,3.75 C116.356,3.75 129.615,17.009 129.615,33.365 C129.615,49.722 116.356,62.981 100,62.981 z" fill="#D051FF"/>
      <g id="chemistry-svgrepo-com">
        <path d="M100.498,31.348 C99.225,29.434 97.423,28.002 95.288,27.208 C94.891,27.06 94.448,27.262 94.301,27.66 C94.153,28.057 94.355,28.499 94.752,28.647 C96.582,29.327 98.127,30.555 99.219,32.198 C99.367,32.42 99.611,32.541 99.859,32.541 C100.005,32.541 100.153,32.499 100.283,32.412 C100.637,32.177 100.732,31.701 100.498,31.348 z" fill="#FFFFFF"/>
        <path d="M93.354,19.98 C92.93,19.98 92.586,20.324 92.586,20.748 L92.586,25.529 C92.586,25.953 92.93,26.297 93.354,26.297 C93.777,26.297 94.121,25.953 94.121,25.529 L94.121,20.748 C94.121,20.324 93.777,19.98 93.354,19.98 z" fill="#FFFFFF"/>
        <path d="M120.69,45.434 L112.688,29.914 L112.688,23.499 C114.043,23.374 115.107,22.231 115.107,20.844 C115.107,19.373 113.911,18.177 112.44,18.177 L103.518,18.177 C102.048,18.177 100.851,19.373 100.851,20.844 C100.851,22.231 101.915,23.373 103.27,23.499 L103.27,29.914 L102.98,30.476 C101.522,28.045 99.3,26.107 96.68,25.007 L96.68,18.867 C97.819,18.563 98.66,17.523 98.66,16.289 C98.66,14.818 97.464,13.622 95.993,13.622 L87.072,13.622 C85.601,13.622 84.404,14.818 84.404,16.289 C84.404,17.523 85.246,18.563 86.386,18.867 L86.386,25.007 C84.077,25.973 82.098,27.558 80.641,29.618 C79.044,31.875 78.2,34.534 78.2,37.309 C78.2,44.66 84.181,50.641 91.532,50.641 C93.126,50.641 94.679,50.363 96.155,49.815 C96.786,50.343 97.586,50.641 98.441,50.641 L117.517,50.641 C118.773,50.641 119.912,50.001 120.566,48.929 C121.219,47.857 121.266,46.55 120.69,45.434 z M102.386,20.844 C102.386,20.22 102.894,19.712 103.519,19.712 L112.44,19.712 C113.064,19.712 113.572,20.22 113.572,20.844 C113.572,21.468 113.064,21.976 112.44,21.976 L103.519,21.976 C102.894,21.976 102.386,21.468 102.386,20.844 z M85.939,16.289 C85.939,15.665 86.447,15.157 87.072,15.157 L95.993,15.157 C96.617,15.157 97.125,15.665 97.125,16.289 C97.125,16.914 96.618,17.422 95.993,17.422 L87.072,17.422 C86.447,17.421 85.939,16.914 85.939,16.289 z M91.532,49.106 C85.027,49.106 79.735,43.814 79.735,37.309 C79.735,34.854 80.482,32.501 81.894,30.504 C83.277,28.551 85.188,27.079 87.421,26.249 C87.721,26.137 87.921,25.85 87.921,25.529 L87.921,18.957 L95.145,18.957 L95.145,25.529 C95.145,25.85 95.344,26.137 95.644,26.248 C98.462,27.297 100.807,29.427 102.131,32.123 L99.21,37.789 C98.971,37.688 98.746,37.575 98.513,37.458 C97.659,37.028 96.691,36.541 94.85,36.541 C93.009,36.541 92.041,37.028 91.187,37.458 C90.384,37.862 89.691,38.212 88.214,38.212 C86.737,38.212 86.044,37.863 85.241,37.458 C84.387,37.028 83.419,36.541 81.578,36.541 C81.154,36.541 80.81,36.885 80.81,37.309 C80.81,43.221 85.62,48.031 91.532,48.031 C92.69,48.031 93.816,47.849 94.894,47.491 C94.937,47.846 95.032,48.196 95.183,48.529 C94.01,48.912 92.786,49.106 91.532,49.106 z M95.268,45.434 C95.212,45.543 95.164,45.653 95.12,45.764 C93.986,46.249 92.78,46.496 91.532,46.496 C86.738,46.496 82.791,42.805 82.38,38.116 C83.338,38.219 83.909,38.507 84.551,38.83 C85.405,39.26 86.373,39.747 88.214,39.747 C90.055,39.747 91.023,39.26 91.877,38.83 C92.68,38.426 93.373,38.076 94.85,38.076 C96.326,38.076 97.02,38.425 97.823,38.829 C98.041,38.939 98.264,39.051 98.504,39.157 L95.268,45.434 z M119.255,48.13 C118.882,48.741 118.233,49.105 117.517,49.105 L98.441,49.105 C97.726,49.105 97.076,48.741 96.704,48.13 C96.331,47.519 96.305,46.774 96.633,46.138 L104.72,30.452 C104.776,30.343 104.805,30.222 104.805,30.1 L104.805,23.511 L111.153,23.511 L111.153,30.1 C111.153,30.222 111.182,30.343 111.239,30.452 L119.326,46.138 C119.654,46.774 119.627,47.519 119.255,48.13 z" fill="#FFFFFF"/>
        <path d="M112.102,34.359 L110.13,30.535 L110.13,25.302 C110.13,24.878 109.786,24.535 109.362,24.535 C108.938,24.535 108.594,24.878 108.594,25.302 L108.594,30.721 C108.594,30.843 108.624,30.964 108.68,31.072 L110.737,35.063 C110.873,35.327 111.142,35.479 111.42,35.479 C111.538,35.479 111.659,35.451 111.771,35.393 C112.148,35.199 112.296,34.736 112.102,34.359 z" fill="#FFFFFF"/>
        <path d="M118.375,46.64 C118.374,46.637 118.372,46.633 118.37,46.631 L113.388,36.966 C113.31,36.816 113.185,36.696 113.033,36.624 C112.936,36.578 112.842,36.531 112.747,36.483 C112.153,36.184 111.479,35.845 110.191,35.845 C108.902,35.845 108.228,36.184 107.633,36.484 C107.107,36.749 106.69,36.959 105.767,36.959 C104.843,36.959 104.427,36.749 103.9,36.484 C103.838,36.453 103.776,36.422 103.714,36.391 C103.338,36.207 102.884,36.357 102.693,36.728 L97.593,46.622 C97.43,46.929 97.441,47.275 97.621,47.569 C97.705,47.708 97.954,48.031 98.441,48.031 L117.517,48.031 C118.003,48.031 118.251,47.71 118.337,47.567 C118.422,47.428 118.588,47.066 118.375,46.64 z M99.385,46.496 L99.385,46.496 L103.715,38.097 C104.209,38.312 104.824,38.494 105.768,38.494 C107.055,38.494 107.729,38.154 108.324,37.855 C108.851,37.589 109.267,37.38 110.191,37.38 C111.114,37.38 111.531,37.589 112.057,37.855 C112.085,37.868 112.112,37.882 112.14,37.896 L116.573,46.496 L99.385,46.496 z" fill="#FFFFFF"/>
      </g>
    </g>
    <g>
      <path d="M100,196.25 C83.644,196.25 70.385,182.991 70.385,166.635 C70.385,150.278 83.644,137.019 100,137.019 C116.356,137.019 129.615,150.278 129.615,166.635 C129.615,182.991 116.356,196.25 100,196.25 z" fill="#AB5500"/>
      <g id="space-comet-svgrepo-com">
        <path d="M94.371,185.917 C100.41,185.917 105.324,181.033 105.324,175.029 C105.324,169.026 100.41,164.142 94.371,164.142 C88.331,164.142 83.418,169.026 83.418,175.029 C83.418,181.033 88.331,185.917 94.371,185.917 z M94.371,166.063 C99.345,166.063 103.391,170.085 103.391,175.029 C103.391,179.973 99.345,183.995 94.371,183.995 C92.349,183.995 90.585,183.407 89.079,182.286 C88.981,182.22 89.05,182.168 89.087,182.146 C89.698,181.769 90.106,181.097 90.106,180.331 C90.106,179.155 89.143,178.198 87.959,178.198 C87.342,178.198 86.786,178.459 86.394,178.875 C86.357,178.915 86.291,179.002 86.247,178.92 C86.048,178.521 85.919,178.184 85.778,177.754 C85.733,177.614 85.82,177.638 85.863,177.648 C86.054,177.691 86.253,177.716 86.457,177.716 C87.956,177.716 89.175,176.504 89.175,175.015 C89.175,173.525 87.956,172.314 86.457,172.314 C86.336,172.314 86.215,172.312 86.1,172.338 C85.786,172.411 85.831,172.139 85.88,172.006 C87.13,168.545 90.464,166.063 94.371,166.063 z" fill="#FFFFFF"/>
        <path d="M94.452,177.904 C93.163,177.904 92.114,178.947 92.114,180.229 C92.114,181.51 93.163,182.553 94.452,182.553 C95.742,182.553 96.791,181.51 96.791,180.229 C96.791,178.947 95.741,177.904 94.452,177.904 z" fill="#FFFFFF"/>
        <path d="M99.257,179.038 C100.172,179.038 100.916,178.298 100.916,177.389 C100.916,176.48 100.172,175.74 99.257,175.74 C98.343,175.74 97.599,176.48 97.599,177.389 C97.599,178.298 98.343,179.038 99.257,179.038 z" fill="#FFFFFF"/>
        <path d="M93.375,175.859 C94.298,175.859 95.05,175.112 95.05,174.195 C95.05,173.277 94.298,172.53 93.375,172.53 C92.452,172.53 91.701,173.277 91.701,174.195 C91.701,175.112 92.452,175.859 93.375,175.859 z" fill="#FFFFFF"/>
        <path d="M96.224,171.252 C96.883,171.252 97.42,170.719 97.42,170.063 C97.42,169.407 96.883,168.873 96.224,168.873 C95.563,168.873 95.027,169.407 95.027,170.063 C95.027,170.719 95.563,171.252 96.224,171.252 z" fill="#FFFFFF"/>
        <path d="M103.909,184.407 C101.369,186.959 97.982,188.364 94.371,188.364 C86.973,188.364 80.955,182.382 80.955,175.029 C80.955,172.088 81.899,169.299 83.685,166.965 C84.008,166.543 83.926,165.94 83.501,165.619 C83.076,165.297 82.47,165.38 82.147,165.802 C80.103,168.474 79.022,171.664 79.022,175.029 C79.022,183.442 85.908,190.286 94.371,190.286 C98.502,190.286 102.378,188.678 105.283,185.758 C105.658,185.381 105.655,184.773 105.275,184.4 C104.896,184.027 104.284,184.03 103.909,184.407 z" fill="#FFFFFF"/>
        <path d="M120.314,163.613 C119.79,162.937 118.837,163.151 117.548,163.528 C116.592,163.808 115.384,164.225 114.216,164.629 C113.742,164.793 113.21,164.977 112.695,165.15 C112.561,165.195 112.384,165.185 112.572,164.931 C113.307,163.981 113.995,163.158 114.742,162.246 C115.576,161.227 116.365,160.264 116.947,159.509 C117.789,158.415 118.297,157.755 117.867,157.058 C117.423,156.338 116.524,156.555 115.867,156.714 C115.314,156.848 114.606,157.056 113.856,157.275 C113.358,157.421 112.712,157.611 112.106,157.774 C111.952,157.815 111.705,157.865 111.929,157.472 C112.569,156.479 113.27,155.51 114.058,154.386 C114.991,153.057 115.955,151.683 116.646,150.607 C117.607,149.111 118.161,148.157 117.471,147.447 C116.797,146.753 115.826,147.327 115.246,147.67 C114.691,147.997 113.95,148.496 112.98,149.194 C111.223,150.457 109.061,152.124 106.97,153.736 C105.851,154.598 104.597,155.566 103.552,156.349 C103.433,156.438 103.225,156.464 103.364,156.174 C103.688,155.281 103.922,154.686 104.257,153.811 C104.848,152.265 105.458,150.667 105.882,149.408 C106.514,147.529 106.73,146.586 105.986,146.064 C105.233,145.535 104.472,146.055 102.646,147.565 C101.542,148.478 100.039,149.801 98.18,151.498 C95.071,154.333 91.37,157.848 89.247,159.913 C88.865,160.284 88.858,160.893 89.232,161.272 C89.605,161.651 90.217,161.658 90.599,161.286 C94.912,157.09 100.566,151.781 103.534,149.328 C103.885,149.004 103.882,149.284 103.817,149.467 C103.399,150.647 102.87,152.031 102.45,153.129 C101.936,154.474 101.45,155.745 101.111,156.731 C100.606,158.196 100.372,158.985 101.003,159.507 C101.616,160.015 102.309,159.573 102.723,159.308 C103.049,159.099 103.497,158.786 104.09,158.349 C105.178,157.549 106.624,156.435 108.155,155.254 C110.037,153.803 111.93,152.316 113.775,150.995 C114.296,150.637 114.085,150.969 113.949,151.168 C113.446,151.901 112.92,152.651 112.473,153.287 C111.581,154.558 110.739,155.758 110.117,156.717 C109.237,158.075 108.764,158.878 109.281,159.565 C109.899,160.387 111.08,160.092 114.403,159.119 C114.567,159.071 114.458,159.102 114.637,159.05 C114.943,158.954 114.786,159.135 114.718,159.221 C114.237,159.82 113.705,160.469 113.243,161.034 C112.296,162.19 111.316,163.386 110.589,164.341 C109.454,165.834 109.032,166.51 109.446,167.202 C109.93,168.011 110.956,167.705 111.947,167.409 C112.75,167.17 113.77,166.818 114.851,166.444 C115.772,166.126 116.489,165.862 117.427,165.577 C117.882,165.415 117.778,165.631 117.708,165.739 C115.896,168.545 111.844,174.009 109.486,176.591 C109.128,176.984 109.157,177.592 109.553,177.948 C109.738,178.115 109.97,178.198 110.202,178.198 C110.465,178.198 110.727,178.091 110.918,177.883 C112.352,176.312 114.775,173.237 116.947,170.231 C118.011,168.76 118.895,167.47 119.505,166.5 C120.433,165.023 120.815,164.257 120.314,163.613 z" fill="#FFFFFF"/>
      </g>
    </g>
  </g>
</svg>
