<?xml version="1.0" encoding="UTF-8"?>
<!DOCTYPE svg PUBLIC "-//W3C//DTD SVG 1.1//EN" "http://www.w3.org/Graphics/SVG/1.1/DTD/svg11.dtd">
<svg version="1.1" xmlns="http://www.w3.org/2000/svg" xmlns:xlink="http://www.w3.org/1999/xlink" x="0" y="0" width="200" height="200" viewBox="0, 0, 200, 200">
  <defs>
    <linearGradient id="Gradient_1" gradientUnits="userSpaceOnUse" x1="69.825" y1="91.139" x2="161.781" y2="183.403" gradientTransform="matrix(1, 0, 0, 1, -44.938, -67.469)">
      <stop offset="0" stop-color="#387EB8"/>
      <stop offset="1" stop-color="#366994"/>
    </linearGradient>
    <linearGradient id="Gradient_2" gradientUnits="userSpaceOnUse" x1="126.393" y1="149.833" x2="225.154" y2="244.451" gradientTransform="matrix(1, 0, 0, 1, -44.938, -67.469)">
      <stop offset="0" stop-color="#FFE052"/>
      <stop offset="1" stop-color="#FFC331"/>
    </linearGradient>
  </defs>
  <g id="Layer_1">
    <g id="python">
      <path d="M99.33,7.5 C52.119,7.5 55.067,27.973 55.067,27.973 L55.12,49.183 L100.172,49.183 L100.172,55.552 L37.226,55.552 C37.226,55.552 7.016,52.126 7.016,99.761 C7.016,147.397 33.384,145.708 33.384,145.708 L49.12,145.708 L49.12,123.603 C49.12,123.603 48.272,97.235 75.067,97.235 C101.862,97.235 119.75,97.235 119.75,97.235 C119.75,97.235 144.855,97.641 144.855,72.972 C144.855,48.304 144.855,32.184 144.855,32.184 C144.855,32.184 148.667,7.5 99.33,7.5 z M74.488,21.763 C78.97,21.763 82.593,25.386 82.593,29.868 C82.593,34.35 78.97,37.973 74.488,37.973 C70.006,37.973 66.383,34.35 66.383,29.868 C66.383,25.386 70.006,21.763 74.488,21.763 z" fill="url(#Gradient_1)" id="path8615"/>
      <path d="M100.67,192.5 C147.881,192.5 144.933,172.027 144.933,172.027 L144.88,150.817 L99.828,150.817 L99.828,144.448 L162.774,144.448 C162.774,144.448 192.984,147.874 192.984,100.239 C192.984,52.603 166.616,54.292 166.616,54.292 L150.88,54.292 L150.88,76.397 C150.88,76.397 151.728,102.765 124.933,102.765 C98.138,102.765 80.25,102.765 80.25,102.765 C80.25,102.765 55.145,102.359 55.145,127.028 C55.145,151.696 55.145,167.816 55.145,167.816 C55.145,167.816 51.333,192.5 100.67,192.5 z M125.512,178.237 C121.03,178.237 117.407,174.614 117.407,170.132 C117.407,165.65 121.03,162.027 125.512,162.027 C129.994,162.027 133.617,165.65 133.617,170.132 C133.617,174.614 129.994,178.237 125.512,178.237 z" fill="url(#Gradient_2)" id="path8620"/>
    </g>
  </g>
</svg>
