<?xml version="1.0" encoding="UTF-8" standalone="no"?>
<!DOCTYPE svg PUBLIC "-//W3C//DTD SVG 1.1//EN" "http://www.w3.org/Graphics/SVG/1.1/DTD/svg11.dtd">
<svg width="100%" height="100%" viewBox="0 0 2000 1200" version="1.1" xmlns="http://www.w3.org/2000/svg" xmlns:xlink="http://www.w3.org/1999/xlink" xml:space="preserve" xmlns:serif="http://www.serif.com/" style="fill-rule:evenodd;clip-rule:evenodd;stroke-linejoin:round;stroke-miterlimit:2;">
    <g transform="matrix(3.88319,0,0,3.87792,-569.004,-1726.73)">
        <g>
            <path d="M715.49,585.44C708.91,591.16 707.19,600.19 710.32,607.64C711.23,609.8 710.69,612.32 709.02,613.98L708.88,614.12C707.22,615.78 704.73,616.34 702.56,615.43C695.52,612.45 687.07,613.83 681.33,619.57C681.32,619.58 681.32,619.58 681.29,619.59C681.28,619.6 681.28,619.6 681.27,619.63C675.53,625.37 674.16,633.86 677.15,640.91C678.05,643.05 677.49,645.53 675.86,647.17L675.72,647.31C674.08,648.95 671.6,649.5 669.45,648.6C664.52,646.51 658.89,646.57 653.98,648.77C652.04,649.65 649.76,649.09 648.24,647.6L647.65,647.01C646.05,645.41 645.73,643.01 646.62,640.92C650.35,632.08 647.27,621.04 637.35,615.9C634.72,614.55 631.77,613.97 628.82,613.97L628.81,613.97C626.04,613.97 623.36,614.55 620.9,615.64C618.96,616.52 616.68,615.97 615.16,614.48L614.54,613.87C613.05,612.37 612.49,610.1 613.37,608.16C615.61,603.15 615.62,597.36 613.39,592.36C612.54,590.43 613.08,588.15 614.58,586.65L615.27,585.96C616.76,584.46 619.04,583.93 620.97,584.79C623.41,585.88 626.08,586.45 628.82,586.45L628.83,586.45C631.75,586.45 634.67,585.89 637.27,584.58C644.2,581.03 648.19,574.36 648.19,567.09C648.19,564.5 647.68,561.99 646.72,559.66C645.79,557.42 646.33,554.85 648.04,553.13C649.74,551.43 652.31,550.88 654.52,551.79C656.89,552.78 659.42,553.27 661.94,553.27C664.51,553.27 667.06,552.76 669.47,551.74C671.66,550.81 674.2,551.36 675.88,553.05C677.56,554.73 678.12,557.27 677.18,559.47C675.18,564.25 675.16,569.67 677.13,574.44C678.06,576.66 677.5,579.23 675.79,580.93C674.1,582.63 671.54,583.2 669.32,582.27C662.29,579.35 653.9,580.73 648.2,586.45C644.55,590.12 642.55,594.98 642.55,600.16C642.55,605.34 644.57,610.21 648.2,613.88C651.97,617.65 656.92,619.55 661.88,619.55C666.84,619.55 671.8,617.66 675.58,613.88C681.35,608.1 682.7,599.52 679.62,592.44C678.67,590.26 679.23,587.73 680.9,586.05C682.57,584.37 685.11,583.83 687.29,584.77C689.74,585.85 692.39,586.38 695.01,586.38C699.98,586.38 704.93,584.49 708.71,580.71C712.36,577.04 714.38,572.18 714.38,567.01C714.38,565.16 714.12,563.37 713.62,561.65C712.73,558.53 711.07,555.67 708.71,553.31C702.94,547.53 694.39,546.18 687.33,549.24C685.17,550.17 682.66,549.62 680.99,547.95C679.32,546.28 678.78,543.75 679.71,541.59C682.92,534.15 681.26,525.1 674.72,519.33C667.47,512.94 656.19,513.01 649.01,519.47C644.89,523.18 642.6,528.36 642.6,533.9C642.6,536.6 643.16,539.22 644.2,541.62C645.15,543.8 644.6,546.34 642.93,548.01C641.25,549.69 638.71,550.23 636.54,549.28C634.15,548.24 631.54,547.68 628.82,547.68L628.81,547.68C625.83,547.68 622.84,548.26 620.19,549.64C610.27,554.84 607.23,565.97 611.08,574.8C611.98,576.88 611.7,579.29 610.07,580.9L609.5,581.47C607.99,582.98 605.68,583.52 603.74,582.62C601.24,581.47 598.5,580.86 595.67,580.86L595.66,580.86C592.71,580.86 589.76,581.42 587.13,582.78C580.25,586.34 576.32,592.98 576.32,600.24C576.32,605.43 578.34,610.29 581.97,613.96C585.74,617.73 590.69,619.63 595.65,619.63C598.39,619.63 601.14,619.05 603.67,617.89C605.61,617 607.94,617.54 609.44,619.06L609.96,619.58C611.56,621.18 611.88,623.59 610.98,625.67C607.18,634.51 610.21,645.6 620.12,650.79C622.76,652.17 625.75,652.75 628.74,652.75L628.75,652.75C631.56,652.75 634.27,652.16 636.76,651.02C638.72,650.13 641.03,650.65 642.53,652.18L643.04,652.69C644.55,654.2 645.09,656.52 644.2,658.47C643.06,660.95 642.47,663.67 642.47,666.49C642.47,671.68 644.49,676.54 648.12,680.21C651.89,683.98 656.84,685.88 661.8,685.88C666.76,685.88 671.72,683.99 675.5,680.21C681.3,674.41 682.62,665.83 679.53,658.74C678.58,656.59 679.14,654.08 680.81,652.4C682.48,650.73 684.99,650.19 687.14,651.13C689.61,652.21 692.25,652.76 694.89,652.76C699.86,652.76 704.8,650.87 708.57,647.09L708.61,647.05C714.38,641.27 715.73,632.69 712.65,625.61C711.7,623.43 712.26,620.9 713.93,619.23C715.6,617.56 718.14,617.01 720.32,617.95C722.77,619.03 725.39,619.56 728.04,619.56C733.01,619.56 737.96,617.67 741.74,613.89C749.43,606.19 749.29,593.58 741.31,586.07C734.3,579.29 722.85,579.03 715.49,585.44Z" style="fill:rgb(230,230,230);fill-rule:nonzero;"/>
            <path d="M585.32,656C582.53,658.78 581.01,662.48 581.01,666.43C581.01,670.37 582.55,674.07 585.32,676.86C588.19,679.73 591.97,681.18 595.74,681.18C599.51,681.18 603.29,679.74 606.15,676.86C611.9,671.11 611.9,661.76 606.15,656C600.4,650.25 591.07,650.25 585.32,656Z" style="fill:rgb(230,230,230);fill-rule:nonzero;"/>
            <path d="M595.76,548.72C599.53,548.72 603.31,547.28 606.17,544.4C611.92,538.65 611.92,529.3 606.18,523.54C603.39,520.75 599.7,519.22 595.76,519.22C591.83,519.22 588.13,520.76 585.34,523.54C582.55,526.32 581.03,530.02 581.03,533.97C581.03,537.91 582.57,541.61 585.34,544.4C588.21,547.29 591.98,548.72 595.76,548.72Z" style="fill:rgb(230,230,230);fill-rule:nonzero;"/>
            <path d="M662.29,699.42C654.18,699.42 647.56,706.04 647.56,714.18C647.56,722.32 654.16,728.93 662.29,728.93C670.42,728.93 677.04,722.32 677.04,714.18C677.03,706.02 670.41,699.42 662.29,699.42Z" style="fill:rgb(230,230,230);fill-rule:nonzero;"/>
            <path d="M547.54,585.36C539.41,585.36 532.81,591.97 532.81,600.11C532.81,608.25 539.41,614.87 547.54,614.87C555.67,614.87 562.28,608.25 562.28,600.11C562.28,591.97 555.66,585.36 547.54,585.36Z" style="fill:rgb(230,230,230);fill-rule:nonzero;"/>
            <path d="M661.71,500.55C669.84,500.55 676.45,493.94 676.45,485.8C676.44,477.69 669.84,471.06 661.71,471.06C653.6,471.06 646.99,477.68 646.99,485.82C646.98,493.96 653.58,500.55 661.71,500.55Z" style="fill:rgb(230,230,230);fill-rule:nonzero;"/>
        </g>
    </g>
</svg>
