<svg xmlns="http://www.w3.org/2000/svg" xmlns:xlink="http://www.w3.org/1999/xlink" version="1.1" id="Layer_1" x="0px" y="0px" style="enable-background:new 0 0 2000 1200;" xml:space="preserve" viewBox="532.81 471.06 934.38 257.87">
<style type="text/css">
	.st0{fill:#1A1A1A;}
	.st1{fill:url(#SVGID_1_);}
	.st2{fill:url(#SVGID_2_);}
	.st3{fill:url(#SVGID_3_);}
	.st4{fill:url(#SVGID_4_);}
	.st5{fill:url(#SVGID_5_);}
	.st6{fill:url(#SVGID_6_);}
	.st7{fill:url(#SVGID_7_);}
	.st8{fill:url(#SVGID_8_);}
	.st9{fill:url(#SVGID_9_);}
</style>
<g>
	<g>
		<path class="st0" d="M919.07,608.13H851.7c0.52,10.93,8.79,20.43,24.45,20.43c11.26,0,18.47-5.98,21.99-12.16l18.99,2.12    c-2.64,12.15-16.52,29.23-41.17,29.23c-27.44,0-45.91-20.77-45.91-46.84c0-24.83,17.59-45.8,44.51-45.8    c27.44,0,44.51,21.83,44.51,47.38v5.64H919.07L919.07,608.13z M851.69,593.16h45.74c-0.71-9.86-9.32-18.84-22.86-18.84    C861.38,574.32,852.23,582.94,851.69,593.16z"/>
		<path class="st0" d="M954.6,601.43l-35.54-44.55h26.74l22.15,29.77l22.15-29.77h26.74l-35.54,44.55l35.54,44.55h-26.74    l-22.15-29.77l-22.15,29.77h-26.74L954.6,601.43z"/>
		<path class="st0" d="M1058.56,555.11c15.3,0,27.26,8.1,31.84,18.32l1.23-16.55h20.58V646h-20.58l-1.23-16.55    c-4.57,10.21-16.52,18.32-31.84,18.32c-25.51,0-44.15-20.78-44.15-46.32C1014.4,575.9,1033.05,555.11,1058.56,555.11z     M1062.25,627.31c15.12,0,25.85-11.79,25.85-25.89c0-14.09-10.73-25.89-25.85-25.89c-15.3,0-26.21,11.79-26.21,25.89    C1036.06,615.52,1046.95,627.31,1062.25,627.31z"/>
		<path class="st0" d="M1152.31,645.99h-21.63V530.1h21.63V645.99z"/>
		<path class="st0" d="M1162.88,601.43c0-25.54,19.88-46.32,47.84-46.32c27.78,0,47.5,20.77,47.5,46.32    c0,25.54-19.7,46.32-47.5,46.32C1182.75,647.74,1162.88,626.97,1162.88,601.43z M1236.58,601.43c0-14.09-10.73-25.89-25.85-25.89    c-15.3,0-26.21,11.79-26.21,25.89c0,14.09,10.92,25.89,26.21,25.89C1225.84,627.31,1236.58,615.52,1236.58,601.43z"/>
		<path class="st0" d="M1264.02,601.43c0-25.54,19.88-46.32,47.84-46.32c27.78,0,47.49,20.77,47.49,46.32    c0,25.54-19.71,46.32-47.49,46.32C1283.89,647.74,1264.02,626.97,1264.02,601.43z M1337.71,601.43    c0-14.09-10.73-25.89-25.85-25.89c-15.3,0-26.21,11.79-26.21,25.89c0,14.09,10.92,25.89,26.21,25.89    C1326.99,627.31,1337.71,615.52,1337.71,601.43z"/>
		<path class="st0" d="M1369.39,556.89h20.4l1.23,16.55c4.74-10.22,16.55-18.32,31.84-18.32c25.51,0,44.33,20.77,44.33,46.32    c0,25.54-18.82,46.32-44.33,46.32c-15.3,0-27.1-8.1-31.84-18.32v40.88h-21.63V556.89z M1419.34,627.31    c15.14,0,26.03-11.79,26.03-25.89c0-14.09-10.92-25.89-26.03-25.89c-15.3,0-25.85,11.79-25.85,25.89    C1393.48,615.52,1404.04,627.31,1419.34,627.31z"/>
	</g>
	<g>
		
			<linearGradient id="SVGID_1_" gradientUnits="userSpaceOnUse" x1="-13.7017" y1="1000.6571" x2="140.95" y2="846.006" gradientTransform="matrix(1 0 0 -1 579.16 1504.4)">
			<stop offset="0" style="stop-color:#2942EE"/>
			<stop offset="1" style="stop-color:#008BFF"/>
		</linearGradient>
		<path class="st1" d="M715.49,585.44c-6.58,5.72-8.3,14.75-5.17,22.2c0.91,2.16,0.37,4.68-1.3,6.34l-0.14,0.14    c-1.66,1.66-4.15,2.22-6.32,1.31c-7.04-2.98-15.49-1.6-21.23,4.14c-0.01,0.01-0.01,0.01-0.04,0.02c-0.01,0.01-0.01,0.01-0.02,0.04    c-5.74,5.74-7.11,14.23-4.12,21.28c0.9,2.14,0.34,4.62-1.29,6.26l-0.14,0.14c-1.64,1.64-4.12,2.19-6.27,1.29    c-4.93-2.09-10.56-2.03-15.47,0.17c-1.94,0.88-4.22,0.32-5.74-1.17l-0.59-0.59c-1.6-1.6-1.92-4-1.03-6.09    c3.73-8.84,0.65-19.88-9.27-25.02c-2.63-1.35-5.58-1.93-8.53-1.93h-0.01c-2.77,0-5.45,0.58-7.91,1.67    c-1.94,0.88-4.22,0.33-5.74-1.16l-0.62-0.61c-1.49-1.5-2.05-3.77-1.17-5.71c2.24-5.01,2.25-10.8,0.02-15.8    c-0.85-1.93-0.31-4.21,1.19-5.71l0.69-0.69c1.49-1.5,3.77-2.03,5.7-1.17c2.44,1.09,5.11,1.66,7.85,1.66h0.01    c2.92,0,5.84-0.56,8.44-1.87c6.93-3.55,10.92-10.22,10.92-17.49c0-2.59-0.51-5.1-1.47-7.43c-0.93-2.24-0.39-4.81,1.32-6.53    c1.7-1.7,4.27-2.25,6.48-1.34c2.37,0.99,4.9,1.48,7.42,1.48c2.57,0,5.12-0.51,7.53-1.53c2.19-0.93,4.73-0.38,6.41,1.31    c1.68,1.68,2.24,4.22,1.3,6.42c-2,4.78-2.02,10.2-0.05,14.97c0.93,2.22,0.37,4.79-1.34,6.49c-1.69,1.7-4.25,2.27-6.47,1.34    c-7.03-2.92-15.42-1.54-21.12,4.18c-3.65,3.67-5.65,8.53-5.65,13.71s2.02,10.05,5.65,13.72c3.77,3.77,8.72,5.67,13.68,5.67    c4.96,0,9.92-1.89,13.7-5.67c5.77-5.78,7.12-14.36,4.04-21.44c-0.95-2.18-0.39-4.71,1.28-6.39c1.67-1.68,4.21-2.22,6.39-1.28    c2.45,1.08,5.1,1.61,7.72,1.61c4.97,0,9.92-1.89,13.7-5.67c3.65-3.67,5.67-8.53,5.67-13.7c0-1.85-0.26-3.64-0.76-5.36    c-0.89-3.12-2.55-5.98-4.91-8.34c-5.77-5.78-14.32-7.13-21.38-4.07c-2.16,0.93-4.67,0.38-6.34-1.29s-2.21-4.2-1.28-6.36    c3.21-7.44,1.55-16.49-4.99-22.26c-7.25-6.39-18.53-6.32-25.71,0.14c-4.12,3.71-6.41,8.89-6.41,14.43c0,2.7,0.56,5.32,1.6,7.72    c0.95,2.18,0.4,4.72-1.27,6.39c-1.68,1.68-4.22,2.22-6.39,1.27c-2.39-1.04-5-1.6-7.72-1.6h-0.01c-2.98,0-5.97,0.58-8.62,1.96    c-9.92,5.2-12.96,16.33-9.11,25.16c0.9,2.08,0.62,4.49-1.01,6.1l-0.57,0.57c-1.51,1.51-3.82,2.05-5.76,1.15    c-2.5-1.15-5.24-1.76-8.07-1.76h-0.01c-2.95,0-5.9,0.56-8.53,1.92c-6.88,3.56-10.81,10.2-10.81,17.46    c0,5.19,2.02,10.05,5.65,13.72c3.77,3.77,8.72,5.67,13.68,5.67c2.74,0,5.49-0.58,8.02-1.74c1.94-0.89,4.27-0.35,5.77,1.17    l0.52,0.52c1.6,1.6,1.92,4.01,1.02,6.09c-3.8,8.84-0.77,19.93,9.14,25.12c2.64,1.38,5.63,1.96,8.62,1.96h0.01    c2.81,0,5.52-0.59,8.01-1.73c1.96-0.89,4.27-0.37,5.77,1.16l0.51,0.51c1.51,1.51,2.05,3.83,1.16,5.78    c-1.14,2.48-1.73,5.2-1.73,8.02c0,5.19,2.02,10.05,5.65,13.72c3.77,3.77,8.72,5.67,13.68,5.67s9.92-1.89,13.7-5.67    c5.8-5.8,7.12-14.38,4.03-21.47c-0.95-2.15-0.39-4.66,1.28-6.34c1.67-1.67,4.18-2.21,6.33-1.27c2.47,1.08,5.11,1.63,7.75,1.63    c4.97,0,9.91-1.89,13.68-5.67c0.01-0.01,0.01-0.01,0.02-0.02c0.01-0.01,0.01-0.01,0.02-0.02c5.77-5.78,7.12-14.36,4.04-21.44    c-0.95-2.18-0.39-4.71,1.28-6.38c1.67-1.67,4.21-2.22,6.39-1.28c2.45,1.08,5.07,1.61,7.72,1.61c4.97,0,9.92-1.89,13.7-5.67    c7.69-7.7,7.55-20.31-0.43-27.82C734.3,579.29,722.85,579.03,715.49,585.44z"/>
		
			<linearGradient id="SVGID_2_" gradientUnits="userSpaceOnUse" x1="52.6805" y1="1067.0398" x2="207.3325" y2="912.3884" gradientTransform="matrix(1 0 0 -1 579.16 1504.4)">
			<stop offset="0" style="stop-color:#2942EE"/>
			<stop offset="1" style="stop-color:#008BFF"/>
		</linearGradient>
		<path class="st2" d="M728.26,548.53c3.77,0,7.55-1.44,10.42-4.32c5.75-5.75,5.75-15.1,0-20.86c-5.75-5.75-15.09-5.75-20.84,0    c-2.79,2.79-4.31,6.49-4.31,10.43s1.54,7.64,4.31,10.43C720.71,547.1,724.49,548.53,728.26,548.53z"/>
		
			<linearGradient id="SVGID_3_" gradientUnits="userSpaceOnUse" x1="-13.7537" y1="1000.605" x2="140.8983" y2="845.953" gradientTransform="matrix(1 0 0 -1 579.16 1504.4)">
			<stop offset="0" style="stop-color:#2942EE"/>
			<stop offset="1" style="stop-color:#008BFF"/>
		</linearGradient>
		<path class="st3" d="M728.05,651.69c-3.94,0-7.63,1.54-10.42,4.32c-2.78,2.78-4.31,6.48-4.31,10.43c0,3.94,1.54,7.64,4.31,10.43    c2.87,2.87,6.64,4.32,10.41,4.32s7.55-1.44,10.42-4.32c5.75-5.75,5.75-15.1,0.01-20.86C735.7,653.24,732,651.69,728.05,651.69z"/>
		
			<linearGradient id="SVGID_4_" gradientUnits="userSpaceOnUse" x1="-79.908" y1="934.4511" x2="74.7438" y2="779.7998" gradientTransform="matrix(1 0 0 -1 579.16 1504.4)">
			<stop offset="0" style="stop-color:#2942EE"/>
			<stop offset="1" style="stop-color:#008BFF"/>
		</linearGradient>
		<path class="st4" d="M585.32,656c-2.79,2.78-4.31,6.48-4.31,10.43c0,3.94,1.54,7.64,4.31,10.43c2.87,2.87,6.65,4.32,10.42,4.32    s7.55-1.44,10.41-4.32c5.75-5.75,5.75-15.1,0-20.86C600.4,650.25,591.07,650.25,585.32,656z"/>
		
			<linearGradient id="SVGID_5_" gradientUnits="userSpaceOnUse" x1="-13.6658" y1="1000.6938" x2="140.9855" y2="846.0426" gradientTransform="matrix(1 0 0 -1 579.16 1504.4)">
			<stop offset="0" style="stop-color:#2942EE"/>
			<stop offset="1" style="stop-color:#008BFF"/>
		</linearGradient>
		<path class="st5" d="M595.76,548.72c3.77,0,7.55-1.44,10.41-4.32c5.75-5.75,5.75-15.1,0.01-20.86c-2.79-2.79-6.48-4.32-10.42-4.32    c-3.93,0-7.63,1.54-10.42,4.32c-2.79,2.78-4.31,6.48-4.31,10.43c0,3.94,1.54,7.64,4.31,10.43    C588.21,547.29,591.98,548.72,595.76,548.72z"/>
		
			<linearGradient id="SVGID_6_" gradientUnits="userSpaceOnUse" x1="43.1756" y1="1057.5349" x2="197.8275" y2="902.8835" gradientTransform="matrix(1 0 0 -1 579.16 1504.4)">
			<stop offset="0" style="stop-color:#2942EE"/>
			<stop offset="1" style="stop-color:#008BFF"/>
		</linearGradient>
		<path class="st6" d="M775.59,585.36c-8.13,0-14.75,6.62-14.75,14.76s6.62,14.76,14.75,14.76c8.13,0,14.74-6.62,14.74-14.76    S783.72,585.36,775.59,585.36z"/>
		
			<linearGradient id="SVGID_7_" gradientUnits="userSpaceOnUse" x1="-70.5015" y1="943.858" x2="84.1503" y2="789.2062" gradientTransform="matrix(1 0 0 -1 579.16 1504.4)">
			<stop offset="0" style="stop-color:#2942EE"/>
			<stop offset="1" style="stop-color:#008BFF"/>
		</linearGradient>
		<path class="st7" d="M662.29,699.42c-8.11,0-14.73,6.62-14.73,14.76s6.6,14.75,14.73,14.75c8.13,0,14.75-6.61,14.75-14.75    C677.03,706.02,670.41,699.42,662.29,699.42z"/>
		
			<linearGradient id="SVGID_8_" gradientUnits="userSpaceOnUse" x1="-70.8438" y1="943.5153" x2="83.8076" y2="788.8635" gradientTransform="matrix(1 0 0 -1 579.16 1504.4)">
			<stop offset="0" style="stop-color:#2942EE"/>
			<stop offset="1" style="stop-color:#008BFF"/>
		</linearGradient>
		<path class="st8" d="M547.54,585.36c-8.13,0-14.73,6.61-14.73,14.75s6.6,14.76,14.73,14.76c8.13,0,14.74-6.62,14.74-14.76    C562.28,591.97,555.66,585.36,547.54,585.36z"/>
		
			<linearGradient id="SVGID_9_" gradientUnits="userSpaceOnUse" x1="43.3855" y1="1057.7441" x2="198.0364" y2="903.0923" gradientTransform="matrix(1 0 0 -1 579.16 1504.4)">
			<stop offset="0" style="stop-color:#2942EE"/>
			<stop offset="1" style="stop-color:#008BFF"/>
		</linearGradient>
		<path class="st9" d="M661.71,500.55c8.13,0,14.74-6.61,14.74-14.75c-0.01-8.11-6.61-14.74-14.74-14.74    c-8.11,0-14.72,6.62-14.72,14.76C646.98,493.96,653.58,500.55,661.71,500.55z"/>
	</g>
</g>
</svg>